# xmcd CD database file
#
# Track frame offsets:
#	150
#	15112
#	29349
#	50265
#	67977
#	84162
#	98477
#	115671
#	139064
#	152242
#
# Disc length: 2250 seconds
#
# Revision: 0
# Processed by: cddbd v1.5.2PL0 Copyright (c) Steve Scherf et al.
# Submitted via: CDex 1.79
#
DISCID=6708c80a
DTITLE=blacktopGYPSY - Whirlwind
DYEAR=2011
DGENRE=Country
TTITLE0=Please
TTITLE1=Traci
TTITLE2=Hurricane
TTITLE3=Too Far From Texas
TTITLE4=Butterfly
TTITLE5=If I Were You
TTITLE6=There's No Angel
TTITLE7=I Found The Lions
TTITLE8=Daddy Song
TTITLE9=Mystery Train
EXTD=YEAR: 2011
EXTT0=
EXTT1=
EXTT2=
EXTT3=
EXTT4=
EXTT5=
EXTT6=
EXTT7=
EXTT8=
EXTT9=
PLAYORDER=
